<mxfile host="app.diagrams.net" modified="2023-09-13T08:24:11.523Z" agent="Mozilla/5.0 (Macintosh; Intel Mac OS X 10.15; rv:109.0) Gecko/20100101 Firefox/117.0" etag="ktaYBsyqxiJQQ0wf57lK" version="21.7.4" type="github">
  <diagram name="Page-1" id="I5MYJkCJgakA7Gdwmx0L">
    <mxGraphModel dx="1195" dy="641" grid="1" gridSize="10" guides="1" tooltips="1" connect="1" arrows="1" fold="1" page="1" pageScale="1" pageWidth="827" pageHeight="1169" math="0" shadow="0">
      <root>
        <mxCell id="0" />
        <mxCell id="1" parent="0" />
        <mxCell id="GEHN1lFAxro-cPAtKBEE-3" style="edgeStyle=orthogonalEdgeStyle;rounded=0;orthogonalLoop=1;jettySize=auto;html=1;exitX=0.5;exitY=0;exitDx=0;exitDy=0;entryX=0.5;entryY=1;entryDx=0;entryDy=0;endArrow=none;endFill=0;" parent="1" source="GEHN1lFAxro-cPAtKBEE-1" target="GEHN1lFAxro-cPAtKBEE-2" edge="1">
          <mxGeometry relative="1" as="geometry" />
        </mxCell>
        <mxCell id="GEHN1lFAxro-cPAtKBEE-6" style="edgeStyle=orthogonalEdgeStyle;rounded=0;orthogonalLoop=1;jettySize=auto;html=1;exitX=0.75;exitY=0;exitDx=0;exitDy=0;entryX=0.5;entryY=1;entryDx=0;entryDy=0;endArrow=none;endFill=0;" parent="1" source="GEHN1lFAxro-cPAtKBEE-1" target="GEHN1lFAxro-cPAtKBEE-4" edge="1">
          <mxGeometry relative="1" as="geometry">
            <Array as="points">
              <mxPoint x="390" y="320" />
              <mxPoint x="340" y="320" />
            </Array>
          </mxGeometry>
        </mxCell>
        <mxCell id="GEHN1lFAxro-cPAtKBEE-12" style="edgeStyle=orthogonalEdgeStyle;rounded=0;orthogonalLoop=1;jettySize=auto;html=1;exitX=1;exitY=0;exitDx=0;exitDy=0;entryX=0.5;entryY=1;entryDx=0;entryDy=0;endArrow=none;endFill=0;" parent="1" source="GEHN1lFAxro-cPAtKBEE-1" target="GEHN1lFAxro-cPAtKBEE-11" edge="1">
          <mxGeometry relative="1" as="geometry">
            <Array as="points">
              <mxPoint x="400" y="380" />
              <mxPoint x="400" y="335" />
              <mxPoint x="500" y="335" />
            </Array>
          </mxGeometry>
        </mxCell>
        <mxCell id="GEHN1lFAxro-cPAtKBEE-22" style="edgeStyle=orthogonalEdgeStyle;rounded=0;orthogonalLoop=1;jettySize=auto;html=1;entryX=0;entryY=0.5;entryDx=0;entryDy=0;endArrow=none;endFill=0;" parent="1" source="GEHN1lFAxro-cPAtKBEE-1" target="GEHN1lFAxro-cPAtKBEE-21" edge="1">
          <mxGeometry relative="1" as="geometry" />
        </mxCell>
        <mxCell id="GEHN1lFAxro-cPAtKBEE-1" value="ROMVESEN" style="rounded=0;whiteSpace=wrap;html=1;" parent="1" vertex="1">
          <mxGeometry x="300" y="380" width="120" height="60" as="geometry" />
        </mxCell>
        <mxCell id="GEHN1lFAxro-cPAtKBEE-2" value="&lt;u&gt;Navn&lt;/u&gt;" style="ellipse;whiteSpace=wrap;html=1;" parent="1" vertex="1">
          <mxGeometry x="120" y="210" width="120" height="80" as="geometry" />
        </mxCell>
        <mxCell id="GEHN1lFAxro-cPAtKBEE-9" style="edgeStyle=orthogonalEdgeStyle;rounded=0;orthogonalLoop=1;jettySize=auto;html=1;exitX=0.5;exitY=0;exitDx=0;exitDy=0;entryX=0.5;entryY=1;entryDx=0;entryDy=0;endArrow=none;endFill=0;" parent="1" source="GEHN1lFAxro-cPAtKBEE-4" target="GEHN1lFAxro-cPAtKBEE-7" edge="1">
          <mxGeometry relative="1" as="geometry" />
        </mxCell>
        <mxCell id="GEHN1lFAxro-cPAtKBEE-4" value="&lt;u&gt;Lyd&lt;/u&gt;" style="ellipse;whiteSpace=wrap;html=1;" parent="1" vertex="1">
          <mxGeometry x="280" y="210" width="120" height="80" as="geometry" />
        </mxCell>
        <mxCell id="GEHN1lFAxro-cPAtKBEE-7" value="Starttone" style="ellipse;whiteSpace=wrap;html=1;" parent="1" vertex="1">
          <mxGeometry x="210" y="80" width="120" height="80" as="geometry" />
        </mxCell>
        <mxCell id="GEHN1lFAxro-cPAtKBEE-10" style="edgeStyle=orthogonalEdgeStyle;rounded=0;orthogonalLoop=1;jettySize=auto;html=1;endArrow=none;endFill=0;entryX=0.641;entryY=0.024;entryDx=0;entryDy=0;entryPerimeter=0;" parent="1" source="GEHN1lFAxro-cPAtKBEE-8" target="GEHN1lFAxro-cPAtKBEE-4" edge="1">
          <mxGeometry relative="1" as="geometry">
            <mxPoint x="440" y="220" as="targetPoint" />
          </mxGeometry>
        </mxCell>
        <mxCell id="GEHN1lFAxro-cPAtKBEE-8" value="Gurglelyd" style="ellipse;whiteSpace=wrap;html=1;" parent="1" vertex="1">
          <mxGeometry x="390" y="80" width="120" height="80" as="geometry" />
        </mxCell>
        <mxCell id="GEHN1lFAxro-cPAtKBEE-11" value="Beskrivelse (String)" style="ellipse;whiteSpace=wrap;html=1;" parent="1" vertex="1">
          <mxGeometry x="440" y="210" width="120" height="80" as="geometry" />
        </mxCell>
        <mxCell id="GEHN1lFAxro-cPAtKBEE-13" value="Organisert_i" style="rhombus;whiteSpace=wrap;html=1;rounded=0;" parent="1" vertex="1">
          <mxGeometry x="535" y="490" width="140" height="120" as="geometry" />
        </mxCell>
        <mxCell id="GEHN1lFAxro-cPAtKBEE-32" style="edgeStyle=orthogonalEdgeStyle;rounded=0;orthogonalLoop=1;jettySize=auto;html=1;exitX=1;exitY=0.5;exitDx=0;exitDy=0;endArrow=none;endFill=0;" parent="1" source="GEHN1lFAxro-cPAtKBEE-15" target="GEHN1lFAxro-cPAtKBEE-26" edge="1">
          <mxGeometry relative="1" as="geometry" />
        </mxCell>
        <mxCell id="GEHN1lFAxro-cPAtKBEE-36" style="edgeStyle=orthogonalEdgeStyle;rounded=0;orthogonalLoop=1;jettySize=auto;html=1;exitX=0.25;exitY=0;exitDx=0;exitDy=0;entryX=0.5;entryY=1;entryDx=0;entryDy=0;endArrow=none;endFill=0;" parent="1" source="GEHN1lFAxro-cPAtKBEE-15" target="GEHN1lFAxro-cPAtKBEE-34" edge="1">
          <mxGeometry relative="1" as="geometry" />
        </mxCell>
        <mxCell id="GEHN1lFAxro-cPAtKBEE-37" style="edgeStyle=orthogonalEdgeStyle;rounded=0;orthogonalLoop=1;jettySize=auto;html=1;exitX=0.75;exitY=0;exitDx=0;exitDy=0;entryX=0.5;entryY=1;entryDx=0;entryDy=0;endArrow=none;endFill=0;" parent="1" source="GEHN1lFAxro-cPAtKBEE-15" target="GEHN1lFAxro-cPAtKBEE-35" edge="1">
          <mxGeometry relative="1" as="geometry" />
        </mxCell>
        <mxCell id="GEHN1lFAxro-cPAtKBEE-15" value="GRUPPER" style="whiteSpace=wrap;html=1;rounded=0;" parent="1" vertex="1">
          <mxGeometry x="770" y="380" width="120" height="60" as="geometry" />
        </mxCell>
        <mxCell id="GEHN1lFAxro-cPAtKBEE-18" value="1" style="text;html=1;align=center;verticalAlign=middle;resizable=0;points=[];autosize=1;strokeColor=none;fillColor=none;" parent="1" vertex="1">
          <mxGeometry x="665" y="520" width="30" height="30" as="geometry" />
        </mxCell>
        <mxCell id="GEHN1lFAxro-cPAtKBEE-21" value="Leder_for" style="rhombus;whiteSpace=wrap;html=1;" parent="1" vertex="1">
          <mxGeometry x="565" y="340" width="80" height="80" as="geometry" />
        </mxCell>
        <mxCell id="GEHN1lFAxro-cPAtKBEE-25" value="1" style="text;html=1;align=center;verticalAlign=middle;resizable=0;points=[];autosize=1;strokeColor=none;fillColor=none;" parent="1" vertex="1">
          <mxGeometry x="545" y="358" width="30" height="30" as="geometry" />
        </mxCell>
        <mxCell id="GEHN1lFAxro-cPAtKBEE-33" style="edgeStyle=orthogonalEdgeStyle;rounded=0;orthogonalLoop=1;jettySize=auto;html=1;exitX=1;exitY=0.5;exitDx=0;exitDy=0;entryX=0;entryY=0.5;entryDx=0;entryDy=0;endArrow=none;endFill=0;" parent="1" source="GEHN1lFAxro-cPAtKBEE-26" target="GEHN1lFAxro-cPAtKBEE-30" edge="1">
          <mxGeometry relative="1" as="geometry" />
        </mxCell>
        <mxCell id="GEHN1lFAxro-cPAtKBEE-26" value="Funksjon" style="rhombus;whiteSpace=wrap;html=1;rounded=0;" parent="1" vertex="1">
          <mxGeometry x="990" y="360" width="100" height="100" as="geometry" />
        </mxCell>
        <mxCell id="GEHN1lFAxro-cPAtKBEE-40" style="edgeStyle=orthogonalEdgeStyle;rounded=0;orthogonalLoop=1;jettySize=auto;html=1;exitX=0.25;exitY=0;exitDx=0;exitDy=0;entryX=0.5;entryY=1;entryDx=0;entryDy=0;endArrow=none;endFill=0;" parent="1" source="GEHN1lFAxro-cPAtKBEE-30" target="GEHN1lFAxro-cPAtKBEE-38" edge="1">
          <mxGeometry relative="1" as="geometry" />
        </mxCell>
        <mxCell id="GEHN1lFAxro-cPAtKBEE-41" style="edgeStyle=orthogonalEdgeStyle;rounded=0;orthogonalLoop=1;jettySize=auto;html=1;exitX=0.75;exitY=0;exitDx=0;exitDy=0;entryX=0.5;entryY=1;entryDx=0;entryDy=0;endArrow=none;endFill=0;" parent="1" source="GEHN1lFAxro-cPAtKBEE-30" target="GEHN1lFAxro-cPAtKBEE-39" edge="1">
          <mxGeometry relative="1" as="geometry" />
        </mxCell>
        <mxCell id="GEHN1lFAxro-cPAtKBEE-30" value="ROMSKIP" style="whiteSpace=wrap;html=1;rounded=0;" parent="1" vertex="1">
          <mxGeometry x="1210" y="380" width="120" height="60" as="geometry" />
        </mxCell>
        <mxCell id="GEHN1lFAxro-cPAtKBEE-34" value="&lt;u&gt;ID&lt;/u&gt;" style="ellipse;whiteSpace=wrap;html=1;" parent="1" vertex="1">
          <mxGeometry x="690" y="210" width="120" height="80" as="geometry" />
        </mxCell>
        <mxCell id="GEHN1lFAxro-cPAtKBEE-35" value="Symbol" style="ellipse;whiteSpace=wrap;html=1;" parent="1" vertex="1">
          <mxGeometry x="850" y="210" width="120" height="80" as="geometry" />
        </mxCell>
        <mxCell id="GEHN1lFAxro-cPAtKBEE-38" value="&lt;u&gt;Serienr.&lt;/u&gt;" style="ellipse;whiteSpace=wrap;html=1;" parent="1" vertex="1">
          <mxGeometry x="1150" y="210" width="120" height="80" as="geometry" />
        </mxCell>
        <mxCell id="GEHN1lFAxro-cPAtKBEE-39" value="Kapasitet(int)" style="ellipse;whiteSpace=wrap;html=1;" parent="1" vertex="1">
          <mxGeometry x="1300" y="210" width="120" height="80" as="geometry" />
        </mxCell>
        <mxCell id="GEHN1lFAxro-cPAtKBEE-42" value="" style="shape=link;html=1;rounded=0;entryX=0;entryY=0.5;entryDx=0;entryDy=0;exitX=0.917;exitY=1;exitDx=0;exitDy=0;exitPerimeter=0;" parent="1" target="GEHN1lFAxro-cPAtKBEE-13" edge="1" source="GEHN1lFAxro-cPAtKBEE-1">
          <mxGeometry relative="1" as="geometry">
            <mxPoint x="420" y="430" as="sourcePoint" />
            <mxPoint x="580" y="430" as="targetPoint" />
            <Array as="points">
              <mxPoint x="410" y="510" />
              <mxPoint x="500" y="510" />
              <mxPoint x="500" y="550" />
            </Array>
          </mxGeometry>
        </mxCell>
        <mxCell id="GEHN1lFAxro-cPAtKBEE-43" value="N" style="resizable=0;html=1;whiteSpace=wrap;align=right;verticalAlign=bottom;" parent="GEHN1lFAxro-cPAtKBEE-42" connectable="0" vertex="1">
          <mxGeometry x="1" relative="1" as="geometry" />
        </mxCell>
        <mxCell id="szDtb8Tq1lDZBCg6u52L-1" value="" style="shape=link;html=1;rounded=0;exitX=0.45;exitY=1.033;exitDx=0;exitDy=0;exitPerimeter=0;entryX=0.259;entryY=1.012;entryDx=0;entryDy=0;entryPerimeter=0;" edge="1" parent="1" source="GEHN1lFAxro-cPAtKBEE-15" target="GEHN1lFAxro-cPAtKBEE-18">
          <mxGeometry relative="1" as="geometry">
            <mxPoint x="740" y="400" as="sourcePoint" />
            <mxPoint x="680" y="550" as="targetPoint" />
            <Array as="points">
              <mxPoint x="824" y="500" />
              <mxPoint x="740" y="500" />
              <mxPoint x="740" y="550" />
            </Array>
          </mxGeometry>
        </mxCell>
        <mxCell id="szDtb8Tq1lDZBCg6u52L-2" value="" style="resizable=0;html=1;whiteSpace=wrap;align=right;verticalAlign=bottom;" connectable="0" vertex="1" parent="szDtb8Tq1lDZBCg6u52L-1">
          <mxGeometry x="1" relative="1" as="geometry" />
        </mxCell>
        <mxCell id="szDtb8Tq1lDZBCg6u52L-3" value="" style="shape=link;html=1;rounded=0;entryX=1;entryY=0.5;entryDx=0;entryDy=0;exitX=0;exitY=0.5;exitDx=0;exitDy=0;width=3.333333333333334;" edge="1" parent="1" source="GEHN1lFAxro-cPAtKBEE-15" target="GEHN1lFAxro-cPAtKBEE-21">
          <mxGeometry relative="1" as="geometry">
            <mxPoint x="610" y="450" as="sourcePoint" />
            <mxPoint x="650" y="387.34000000000015" as="targetPoint" />
            <Array as="points">
              <mxPoint x="690" y="410" />
              <mxPoint x="690" y="380" />
            </Array>
          </mxGeometry>
        </mxCell>
        <mxCell id="szDtb8Tq1lDZBCg6u52L-4" value="1" style="resizable=0;html=1;whiteSpace=wrap;align=right;verticalAlign=bottom;" connectable="0" vertex="1" parent="szDtb8Tq1lDZBCg6u52L-3">
          <mxGeometry x="1" relative="1" as="geometry" />
        </mxCell>
      </root>
    </mxGraphModel>
  </diagram>
</mxfile>
